<svg xmlns="http://www.w3.org/2000/svg" xmlns:xlink="http://www.w3.org/1999/xlink" width="324" height="281" viewBox="0 0 324 281">
    <defs>
        <path id="prefix__a" d="M0 0.044L119.201 0.044 119.201 119.245 0 119.245z"/>
        <path id="prefix__c" d="M0.339 0L256.42 0 256.42 1.407 0.339 1.407z"/>
    </defs>
    <g fill="none" fill-rule="evenodd">
        <g transform="translate(0 89.724)">
            <mask id="prefix__b" fill="#fff">
                <use xlink:href="#prefix__a"/>
            </mask>
            <path fill="#F5CD4F" d="M119.2 59.644c0 32.916-26.683 59.6-59.598 59.6C26.684 119.245 0 92.56 0 59.645 0 26.727 26.684.044 59.602.044c32.915 0 59.599 26.683 59.599 59.6" mask="url(#prefix__b)"/>
        </g>
        <path fill="#F58355" d="M221.61 154.326c-28.485 0-51.578-23.093-51.578-51.58s23.093-51.58 51.579-51.58c28.487 0 51.58 23.093 51.58 51.58s-23.093 51.58-51.58 51.58M222.69 21.85c-44.081 0-79.818 35.736-79.818 79.818s35.737 79.817 79.818 79.817c44.082 0 79.818-35.735 79.818-79.817 0-44.082-35.736-79.818-79.818-79.818"/>
        <path fill="#FF3497" d="M24.618 158.972C21.602 184.294 7.069 237.5 45.795 263.917c38.723 26.42 80.343 10.1 90.486 3.741 34.526-21.645 30.138-61.868-13.215-151.33C68.852 4.458 9.746-1.441 7.601 50.84c-1.39 33.915 20.842 76.015 17.017 108.132"/>
        <path stroke="#4C4C4D" d="M24.618 158.972C21.602 184.294 7.069 237.5 45.795 263.917c38.723 26.42 80.343 10.1 90.486 3.741 34.526-21.645 30.138-61.868-13.215-151.33C68.852 4.458 9.746-1.441 7.601 50.84c-1.39 33.915 20.842 76.015 17.017 108.132z"/>
        <path fill="#D22D70" d="M25.678 19.934s53.838 98.373 86.224 255.94c0 0-74.513 15.269-89.513-50.161-9.931-43.317 14.582-54.233-4.258-120.586-20.496-72.178-1.707-80.948 7.547-85.193"/>
        <path stroke="#373535" d="M112.553 276.41S83.586 136.203 41.084 50.64M67.086 113.522s16.033-25.61 15.004-46.209M72.253 72.058L80.371 83.522M91.702 190.468s16.033-25.61 15.006-46.208M96.87 149.005L104.987 160.469M80.146 151.025s-28.822-9.068-41.415-25.404M49.296 122.843L50.565 136.833M99.876 220.198s-37.36-8.752-54.857-28.245M58.134 187.433L61.067 205.029"/>
        <path fill="#D22D70" d="M303.676 188.767c.835 19.435 8.822 60.746-22.158 78.611-30.98 17.862-61.698 3.05-69.047-2.372-25.017-18.455-19.36-48.799 18.775-114.351 47.688-81.974 92.989-83.055 91.607-43.161-.898 25.878-20.235 56.622-19.177 81.273"/>
        <path stroke="#373535" d="M303.676 188.767c.835 19.435 8.822 60.746-22.158 78.611-30.98 17.862-61.698 3.05-69.047-2.372-25.017-18.455-19.36-48.799 18.775-114.351 47.688-81.974 92.989-83.055 91.607-43.161-.898 25.878-20.235 56.622-19.177 81.273z"/>
        <path fill="#FF3497" d="M310.883 82.942S264.26 154.67 230.542 272.66c0 0 55.801 15.91 70.983-32.996 10.05-32.378-7.968-42.096 10.188-91.483 19.752-53.722 5.965-61.478-.83-65.24"/>
        <path stroke="#373535" d="M230.016 273.032s30.115-104.985 67.379-167.62M273.991 151.746s-10.72-20.405-8.752-36.015M272.451 119.908L265.616 128.161M250.83 208.86s-10.719-20.406-8.75-36.017M249.29 177.02L242.454 185.274M261.895 179.52s22.447-5.236 32.967-16.936M286.987 159.862L285.214 170.432M242.899 231.002s28.924-4.504 43.356-18.322M276.54 208.485L273.294 221.701"/>
        <path fill="#373535" d="M165.361 1.03s-33.447-4.155-45.551 27.327c-14.332 37.274-49.774 106.648-49.774 106.648l106.802-39.983s44.47-84.45-11.477-93.991"/>
        <path stroke="#373535" d="M165.361 1.03s-33.447-4.155-45.551 27.327c-14.332 37.274-49.774 106.648-49.774 106.648l106.802-39.983s44.47-84.45-11.477-93.991z"/>
        <path fill="#A780FE" d="M279.211 278.97h-232.5v-94.033c0-61.708 50.025-111.733 111.733-111.733h9.035c61.708 0 111.732 50.025 111.732 111.733v94.033z"/>
        <path stroke="#373535" d="M279.211 278.97h-232.5v-94.033c0-61.708 50.025-111.733 111.733-111.733h9.035c61.708 0 111.732 50.025 111.732 111.733v94.033z"/>
        <path fill="#8B75EB" d="M198.937 261.403L198.937 99.396 208.23 99.396 279.212 278.97 198.937 278.97z"/>
        <path stroke="#373535" d="M198.937 261.403L198.937 99.396 208.23 99.396 279.212 278.97 198.937 278.97z"/>
        <path fill="#A780FE" d="M95.158 95.022s26.488 84.001 0 144.71l136.495 28.503v10.736H46.71V172.93s7.595-52.028 48.447-77.91"/>
        <path stroke="#373535" d="M95.158 95.022s26.488 84.001 0 144.71l136.495 28.503v10.736H46.71V172.93s7.595-52.028 48.447-77.91z"/>
        <path fill="#FFF" d="M231.652 269.943s36.195-6.831 47.56 9.027h-47.56v-9.027z"/>
        <path stroke="#373535" d="M231.652 269.943s36.195-6.831 47.56 9.027h-47.56v-9.027z"/>
        <path fill="#FFF" d="M143.368 65.153V79.74s-.218 19.742 14.897 19.742c8.077 0 17.07-2.407 14.555-31.91V53.685h-29.452v11.468z"/>
        <path stroke="#373535" d="M143.368 65.153V79.74s-.218 19.742 14.897 19.742c8.077 0 17.07-2.407 14.555-31.91V53.685h-29.452v11.468z"/>
        <path fill="#FFF" d="M193.069 35.507c0 19.222-15.582 34.805-34.803 34.805-19.222 0-34.805-15.583-34.805-34.805 0-19.221 15.583-34.804 34.805-34.804 19.221 0 34.803 15.583 34.803 34.804"/>
        <path stroke="#373535" d="M193.069 35.507c0 19.222-15.582 34.805-34.803 34.805-19.222 0-34.805-15.583-34.805-34.805 0-19.221 15.583-34.804 34.805-34.804 19.221 0 34.803 15.583 34.803 34.804z"/>
        <path fill="#373535" d="M165.361 1.429s-5.846 34.223-36.313 52.98c0 0-13.692-24.25 3.626-42.482 0 0 12.504-13.167 32.687-10.498"/>
        <path stroke="#373535" d="M165.361 1.429s-5.846 34.223-36.313 52.98c0 0-13.692-24.25 3.626-42.482 0 0 12.504-13.167 32.687-10.498z"/>
        <path fill="#373535" d="M165.361 8.64s10.205 20.854 27.707 22.806c0 0-3.137-26.364-27.707-30.018v7.211z"/>
        <path stroke="#373535" d="M165.361 8.64s10.205 20.854 27.707 22.806c0 0-3.137-26.364-27.707-30.018v7.211z"/>
        <path fill="#373535" d="M155.563 55.35c.4-.297 9.926-7.227 19.608-.036l1.667-2.248c-11.384-8.458-22.839-.04-22.953.045l1.678 2.24z"/>
        <path fill="#FFF" d="M198.937 99.395v-8.784l15.87-15.868s3.649 7.371 0 10.644h37.829s-13.217 11.569-53.699 14.008"/>
        <path stroke="#373535" d="M198.937 99.395v-8.784l15.87-15.868s3.649 7.371 0 10.644h37.829s-13.217 11.569-53.699 14.008z"/>
        <path fill="#00D2C0" d="M278.86 248.322l-39.35-11.398c-5.308-1.537-8.366-7.089-6.828-12.399l11.397-39.348c1.538-5.311 7.089-8.369 12.4-6.83l39.35 11.397c5.308 1.538 8.367 7.09 6.828 12.4l-11.397 39.348c-1.538 5.31-7.09 8.37-12.4 6.83"/>
        <path stroke="#373535" d="M278.86 248.322l-39.35-11.398c-5.308-1.537-8.366-7.089-6.828-12.399l11.397-39.348c1.538-5.311 7.089-8.369 12.4-6.83l39.35 11.397c5.308 1.538 8.367 7.09 6.828 12.4l-11.397 39.348c-1.538 5.31-7.09 8.37-12.4 6.83z"/>
        <path stroke="#FFF" stroke-width="2" d="M285.46 220.378c-2.926 10.105-13.49 15.923-23.596 12.997-10.103-2.927-15.923-13.492-12.996-23.596 2.926-10.104 13.49-15.924 23.596-12.997 10.104 2.928 15.923 13.492 12.996 23.596zM257.329 198.769L275.68 232.085"/>
        <g transform="translate(30.955 278.267)">
            <mask id="prefix__d" fill="#fff">
                <use xlink:href="#prefix__c"/>
            </mask>
            <path fill="#8B75EB" d="M0.339 0.704L256.42 0.704" mask="url(#prefix__d)"/>
            <path stroke="#373535" d="M0.339 0.704L256.42 0.704" mask="url(#prefix__d)"/>
        </g>
        <path fill="#00D2C0" d="M45.936 133.336l15.94 21.875c.252.345.735.421 1.08.17l12.189-8.883c.363-.264.873-.165 1.11.216l18.467 29.642c.443.71 1.545.306 1.42-.523l-9.007-59.874c-.084-.572-.748-.851-1.217-.51L69.78 127.21c-.36.263-.864.167-1.105-.206l-12.424-19.35c-.24-.374-.746-.468-1.105-.206l-17.714 12.908c-.345.25-.42.733-.169 1.079l8.673 11.902z"/>
        <path stroke="#373535" d="M45.936 133.336l15.94 21.875c.252.345.735.421 1.08.17l12.189-8.883c.363-.264.873-.165 1.11.216l18.467 29.642c.443.71 1.545.306 1.42-.523l-9.007-59.874c-.084-.572-.748-.851-1.217-.51L69.78 127.21c-.36.263-.864.167-1.105-.206l-12.424-19.35c-.24-.374-.746-.468-1.105-.206l-17.714 12.908c-.345.25-.42.733-.169 1.079l8.673 11.902z"/>
        <path fill="#00D2C0" d="M282.547 62.11L235.01 84.424c-5.004 2.348-10.965.197-13.314-4.808L204.25 42.453c-2.35-5.005-.198-10.967 4.807-13.315l47.538-22.316c5.003-2.35 10.966-.197 13.314 4.808l17.446 37.164c2.35 5.004.197 10.965-4.808 13.315"/>
        <path stroke="#373535" d="M282.547 62.11L235.01 84.424c-5.004 2.348-10.965.197-13.314-4.808L204.25 42.453c-2.35-5.005-.198-10.967 4.807-13.315l47.538-22.316c5.003-2.35 10.966-.197 13.314 4.808l17.446 37.164c2.35 5.004.197 10.965-4.808 13.315z"/>
        <path fill="#FFF" d="M220.149 52.343L227.593 49.029 228.564 51.21 223.659 53.394 224.283 54.797 228.727 52.819 229.627 54.842 225.185 56.819 225.837 58.288 230.809 56.074 231.781 58.257 224.27 61.6zM235.203 50.965c.872-.388 1.187-1.035.885-1.71l-.011-.024c-.324-.728-1.018-.864-1.877-.482l-1.679.749.99 2.222 1.692-.755zm-6.237-2.548l4.377-1.947c1.417-.63 2.558-.695 3.464-.338.777.289 1.37.878 1.777 1.791l.011.026c.63 1.415.296 2.69-.637 3.692l3.644 2.243-2.962 1.318-3.112-1.974-.027.013-1.097.488 1.248 2.804-2.565 1.141-4.121-9.257zM244.707 46.735c.871-.389 1.188-1.036.885-1.71l-.01-.025c-.325-.727-1.02-.864-1.878-.481l-1.678.748.989 2.222 1.692-.754zm-6.237-2.547l4.377-1.949c1.416-.63 2.558-.695 3.464-.337.777.288 1.37.878 1.777 1.79l.012.026c.63 1.416.295 2.69-.638 3.692l3.645 2.243-2.964 1.318-3.11-1.974-.027.013-1.098.488 1.248 2.804-2.565 1.143-4.121-9.257zM257.082 41.48l-.013-.027c-.595-1.335-2.076-2.07-3.492-1.44-1.4.624-1.835 2.18-1.24 3.515l.013.027c.594 1.335 2.077 2.07 3.477 1.446 1.415-.63 1.849-2.186 1.255-3.521m-7.353 3.272l-.01-.025c-1.183-2.66-.001-5.767 2.854-7.04 2.856-1.271 5.92-.082 7.105 2.574l.011.027c1.18 2.658 0 5.766-2.857 7.038-2.855 1.272-5.92.084-7.103-2.574M265.194 37.615c.873-.388 1.188-1.035.887-1.71l-.013-.026c-.322-.728-1.017-.863-1.875-.48l-1.68.749.989 2.22 1.692-.753zm-6.236-2.548l4.378-1.947c1.415-.632 2.558-.695 3.464-.34.775.289 1.37.88 1.777 1.793l.011.025c.63 1.416.294 2.69-.639 3.691l3.646 2.244-2.963 1.319-3.111-1.974-.027.012-1.097.489 1.246 2.804-2.563 1.14-4.122-9.256z"/>
    </g>
</svg>
